<?xml version="1.0" standalone="no"?>
<!DOCTYPE svg PUBLIC "-//W3C//DTD SVG 1.1//EN" "http://www.w3.org/Graphics/SVG/1.1/DTD/svg11.dtd" >
<svg>
<metadata>
Created by FontForge 20090914 at Fri May 24 20:20:06 2013
 By www-data
Copyright (c) 2008 by Ivan Philipov. All rights reserved.
</metadata>
<defs>
<font id="RedOctober" horiz-adv-x="732" >
  <font-face 
    font-family="Red October"
    font-weight="400"
    font-stretch="normal"
    units-per-em="1000"
    panose-1="4 0 0 0 0 0 0 0 0 0"
    ascent="800"
    descent="-200"
    x-height="795"
    cap-height="799"
    bbox="-102 -193 1341 1031"
    underline-thickness="20"
    underline-position="-133"
    unicode-range="U+0020-U+2030"
  />
<missing-glyph horiz-adv-x="500" 
d="M63 0v800h375v-800h-375zM125 63h250v675h-250v-675z" />
    <glyph glyph-name=".notdef" horiz-adv-x="500" 
d="M63 0v800h375v-800h-375zM125 63h250v675h-250v-675z" />
    <glyph glyph-name="space" unicode=" " horiz-adv-x="375" 
 />
    <glyph glyph-name="exclam" unicode="!" horiz-adv-x="272" 
d="M0 0v179h180v-179h-180zM0 283v517h180v-517h-180z" />
    <glyph glyph-name="quotedbl" unicode="&#x22;" horiz-adv-x="389" 
d="M35 700h128l-38 -217h-52zM226 700h128l-38 -217h-52z" />
    <glyph glyph-name="numbersign" unicode="#" horiz-adv-x="510" 
d="M339 0h-87l31 221h-84l-31 -221h-87l31 221h-97v92h110l12 87h-95v92h107l29 208h87l-29 -208h84l30 208h87l-30 -208h88v-92h-100l-12 -87h87v-92h-100zM296 313l12 87h-84l-12 -87h84z" />
    <glyph glyph-name="dollar" unicode="$" horiz-adv-x="558" 
d="M-1 786h185v95h135v-95h186v-169h-337v-137h337v-481h-186v-96h-135v96h-185v169h337v143h-337v475z" />
    <glyph glyph-name="percent" unicode="%" horiz-adv-x="733" 
d="M306 700v-352h-266v352h266zM204 610h-62v-172h62v172zM708 352v-352h-266v352h266zM606 262h-62v-172h62v172zM542 752l68 -36l-398 -760l-68 36z" />
    <glyph glyph-name="ampersand" unicode="&#x26;" horiz-adv-x="680" 
d="M0 799h489v-172h-310v-158h203v67h179v-67h64v-161h-64v-308h-561v307l100 80l-100 80v332zM179 166h203v136h-203v-136z" />
    <glyph glyph-name="quotesingle" unicode="'" horiz-adv-x="198" 
d="M35 700h128l-38 -217h-52z" />
    <glyph glyph-name="parenleft" unicode="(" horiz-adv-x="271" 
d="M271 -127c-45.333 17.333 -87.999 46.334 -127.999 87.001c-39.333 39.333 -69.333 82 -90 128c-28.667 62 -43 130.667 -43 206s14.333 144 43 206c20.667 46 51 89 91 129c39.333 40 81.666 68.667 126.999 86v-137c-82 -57.333 -123 -152 -123 -284
c0 -132.667 41 -227.334 123 -284.001v-137z" />
    <glyph glyph-name="parenright" unicode=")" horiz-adv-x="271" 
d="M0 715c45.333 -17.333 87.667 -46.001 127 -86.001c40 -40 70.333 -83 91 -129c28.667 -62 43 -130.667 43 -206s-14.333 -144 -43 -206c-20.667 -46 -50.667 -88.667 -90 -128c-40 -40.667 -82.667 -69.667 -128 -87v137c82 56.667 123 151.334 123 284.001
c0 132 -41 226.667 -123 284v137z" />
    <glyph glyph-name="asterisk" unicode="*" horiz-adv-x="432" 
d="M129 548l-133 94h162l48 152l51 -152h158l-128 -94l51 -153l-132 95l-128 -95l51 153v0z" />
    <glyph glyph-name="plus" unicode="+" horiz-adv-x="420" 
d="M5 309v90h160v160h90v-160h160v-90h-160v-160h-90v160h-160z" />
    <glyph glyph-name="comma" unicode="," horiz-adv-x="266" 
d="M0 -130v192h171v-113z" />
    <glyph glyph-name="hyphen" unicode="-" horiz-adv-x="358" 
d="M25 370h219v-130h-219v130z" />
    <glyph glyph-name="period" unicode="." horiz-adv-x="266" 
d="M0 2v171h171v-171h-171z" />
    <glyph glyph-name="slash" unicode="/" horiz-adv-x="589" 
d="M515 760l-398 -760l-117 42l398 760z" />
    <glyph glyph-name="zero" unicode="0" horiz-adv-x="734" 
d="M12 0v800h600v-800h-600zM433 179v442h-242v-442h242z" />
    <glyph glyph-name="one" unicode="1" horiz-adv-x="407" 
d="M308 799v-800h-180v575l-121 -31v179l121 31v46h180z" />
    <glyph glyph-name="two" unicode="2" horiz-adv-x="709" 
d="M0 799h616v-353l-438 -212v-57h438v-178h-616v350l437 207v65h-258v-104h-179v282z" />
    <glyph glyph-name="three" unicode="3" horiz-adv-x="656" 
d="M-1 -1v178h411v126h-205v176l145 143h-351v177h590v-176l-159 -144h159v-480h-590z" />
    <glyph glyph-name="four" unicode="4" horiz-adv-x="747" 
d="M643 799v-800h-179v253h-459l119 547h179l-70 -368h231v368h179z" />
    <glyph glyph-name="five" unicode="5" horiz-adv-x="679" 
d="M608 0h-609v237h165v-72h278v193h-443v440h609v-165h-444v-115h444v-518z" />
    <glyph glyph-name="six" unicode="6" horiz-adv-x="747" 
d="M644 -1h-639v800h179v-253h460v-547zM465 367h-281v-188h281v188z" />
    <glyph glyph-name="seven" unicode="7" horiz-adv-x="654" 
d="M585 800v-168l-263 -632h-195l266 626h-215v-74h-178v248h585z" />
    <glyph glyph-name="eight" unicode="8" horiz-adv-x="627" 
d="M376 636h-196v-94l64 -66h68l64 66v94zM0 2v308l106 92l-106 91v309h554v-309l-110 -91l110 -92v-308h-554zM376 256l-64 66h-68l-64 -66v-88h196v88z" />
    <glyph glyph-name="nine" unicode="9" horiz-adv-x="747" 
d="M-11 799h639v-800h-179v253h-460v547zM168 431h281v189h-281v-189z" />
    <glyph glyph-name="colon" unicode=":" horiz-adv-x="266" 
d="M0 436v171h171v-171h-171zM0 2v171h171v-171h-171z" />
    <glyph glyph-name="semicolon" unicode=";" horiz-adv-x="266" 
d="M0 436v171h171v-171h-171zM0 -18v192h171v-113z" />
    <glyph glyph-name="less" unicode="&#x3c;" horiz-adv-x="392" 
d="M118 353l264 -111v-93l-387 173v74l387 173v-93z" />
    <glyph glyph-name="equal" unicode="=" horiz-adv-x="430" 
d="M420 480v-90h-410v90h410zM420 318v-90h-410v90h410z" />
    <glyph glyph-name="greater" unicode="&#x3e;" horiz-adv-x="392" 
d="M274 353l-264 117v93l387 -173v-74l-387 -173v93z" />
    <glyph glyph-name="question" unicode="?" horiz-adv-x="697" 
d="M159 160h178v-160h-178v160zM159 221v210l277 127v65h-258v-104h-179v282h616v-353l-278 -132v-95h-178z" />
    <glyph glyph-name="at" unicode="@" horiz-adv-x="817" 
d="M176 566l67 -39h-14l-29 16l-27 -28l42 -20l28 13h20l26 -47l-53 22l-51 -29l-40 19l-25 25v31zM193 447l25 14l16 -12l1 -12zM462 329l33 114l44 24l22 -22v-22l-26 4l14 -14l-14 -30l-26 9l-14 -49zM506 348l10 31l18 -7l-8 -17zM38 307l45 20l87 -33l49 -7l20 -50
l-20 -20l-26 27l-39 -28h-15l-42 21l-23 -12zM88 270h16l43 -9l-43 25l-22 -11zM37 360l26 40l39 -13h17v18l30 -11l-11 -35l-15 -15l-41 12l-27 -11zM88 497l-6 -17l-27 27l19 19zM734 531l-7.00098 -180.001l-22 -85l-59 -60l-69 -206h-104l14 22l-34 14l-12 -36h-53
l70 229l-17 17l-16 -48l-61 -26l-15 -42l12 -28l-38 -102h-90l-33 61l-37 12l-50 -25l-113 49l16 15l66 36l13 75l20 -20l3 -31l36 -18l32 -4l11 41l28 13l37 -37l139 73l11 47l44 18l4 -20l92 48l34 107l-33 65l-75 -38l-13 -44l-31 15l-33 -8l-22 49l16 64l22 8l10 -29
l38 -17l8 26l-13 41l104 47l85 -32l34 12l-38.5 85.5l-25.5 57.5c-21.333 14 -40.333 27 -57 39c-53.333 14 -104 21 -152 21c-46.667 0 -100.334 -6.33301 -161.001 -19c-47.333 -9.33301 -86.666 -42.666 -117.999 -99.999l-55 -148l-13 -9l56 162
c32.667 64.667 74.334 102 125.001 112c35.333 6.66699 67.5 11.667 96.5 15s55.167 5 78.5 5c46.667 0 96.667 -6.66699 150 -20l68 -43l86 -198v-6z" />
    <glyph glyph-name="A" unicode="A" horiz-adv-x="719" 
d="M142 620h-125v179h600v-800h-179v136h-238l-36 -136h-184zM438 314v306h-112l-80 -306h192z" />
    <glyph glyph-name="B" unicode="B" horiz-adv-x="739" 
d="M648 477l-88 -79l88 -61v-337h-648v799h649zM403 318h-224v-140h276v91zM403 497l52 51v72h-276v-123h224z" />
    <glyph glyph-name="C" unicode="C" horiz-adv-x="721" 
d="M0 -1v800h626v-179h-447v-442h447v-179h-626z" />
    <glyph glyph-name="D" unicode="D" horiz-adv-x="781" 
d="M697 799v-179l-163 -621h-459v621h-75v179h697zM511 620h-257v-442h142z" />
    <glyph glyph-name="E" unicode="E" horiz-adv-x="701" 
d="M0 -1v800h627v-179h-448v-123h350v-179h-350v-140h448v-179h-627z" />
    <glyph glyph-name="F" unicode="F" horiz-adv-x="671" 
d="M0 -1v800h627v-179h-448v-123h350v-179h-350v-319h-179z" />
    <glyph glyph-name="G" unicode="G" horiz-adv-x="752" 
d="M668 -1h-668v800h668v-179h-489v-442h310v153h-187v179h366v-511z" />
    <glyph glyph-name="H" unicode="H" 
d="M637 799v-800h-179v394h-279v-394h-179v800h179v-227h279v227h179z" />
    <glyph glyph-name="I" unicode="I" horiz-adv-x="293" 
d="M5 -1v800h179v-800h-179z" />
    <glyph glyph-name="J" unicode="J" horiz-adv-x="566" 
d="M433 0h-429v179h249v621h180v-800z" />
    <glyph glyph-name="K" unicode="K" horiz-adv-x="725" 
d="M522 396l84 -396h-188l-84 396h-155v-396h-179v800h179v-225h281v225h179v-404h-117z" />
    <glyph glyph-name="L" unicode="L" horiz-adv-x="658" 
d="M579 292v-293h-579v800h179v-621h222v114h178z" />
    <glyph glyph-name="M" unicode="M" horiz-adv-x="895" 
d="M0 800h180l220 -208l221 208h179v-800h-179v558l-221 -223l-220 223v-558h-180v800z" />
    <glyph glyph-name="N" unicode="N" horiz-adv-x="717" 
d="M179 800v-96l264 -157v253h179v-800h-179v329l-264 157v-486h-179v800h179z" />
    <glyph glyph-name="O" unicode="O" horiz-adv-x="775" 
d="M0 0v800h680v-800h-680zM501 179v442h-322v-442h322z" />
    <glyph glyph-name="P" unicode="P" horiz-adv-x="704" 
d="M639 253h-460v-253h-179v800h639v-547zM460 621h-281v-189h281v189z" />
    <glyph glyph-name="Q" unicode="Q" horiz-adv-x="773" 
d="M678 3h-249v-122h-179v122h-249v796h677v-796zM500 621h-321v-440h71l1 112h178v-112h71v440z" />
    <glyph glyph-name="R" unicode="R" horiz-adv-x="779" 
d="M669 800v-479h-105l72 -321h-188l-72 321h-197v-321h-179v800h669zM490 498v123h-311v-123h311z" />
    <glyph glyph-name="S" unicode="S" horiz-adv-x="721" 
d="M638 0h-638v178h461v136h-461v486h638v-179h-459v-131h459v-490z" />
    <glyph glyph-name="T" unicode="T" horiz-adv-x="701" 
d="M620 621h-224v-621h-195v621h-221v179h640v-179z" />
    <glyph glyph-name="U" unicode="U" horiz-adv-x="742" 
d="M0 0v800h179v-620h294v620h178v-800h-651z" />
    <glyph glyph-name="V" unicode="V" horiz-adv-x="659" 
d="M429 0h-429v800h179v-621h112l162 621h184z" />
    <glyph glyph-name="W" unicode="W" horiz-adv-x="895" 
d="M800 0h-180l-220 208l-221 -208h-179v800h179v-559l221 224l220 -224v559h180v-800z" />
    <glyph glyph-name="X" unicode="X" horiz-adv-x="691" 
d="M601 1h-178v233l-64 66h-115l-64 -66v-233h-180v303l106 107l-106 91v299h180v-233l64 -66h115l64 66v233h178v-299l-110 -91l110 -107v-303v0z" />
    <glyph glyph-name="Y" unicode="Y" horiz-adv-x="740" 
d="M238 -1v296h-238v504h179v-325h280v325h180v-504h-222v-296h-179z" />
    <glyph glyph-name="Z" unicode="Z" horiz-adv-x="718" 
d="M0 349l460 207v65h-460v179h638v-353l-460 -212v-57h460v-178h-638v349z" />
    <glyph glyph-name="bracketleft" unicode="[" horiz-adv-x="237" 
d="M30 824h204v-82h-43v-673h43v-82h-204v837z" />
    <glyph glyph-name="backslash" unicode="\" horiz-adv-x="386" 
d="M-40 746l68 36l398 -760l-68 -36z" />
    <glyph glyph-name="bracketright" unicode="]" horiz-adv-x="203" 
d="M163 814v-837h-204v82h43v673h-43v82h204z" />
    <glyph glyph-name="asciicircum" unicode="^" horiz-adv-x="409" 
d="M204 696l-128 -294h-86l176 398h77l176 -398h-86z" />
    <glyph glyph-name="underscore" unicode="_" horiz-adv-x="500" 
d="M500 -122h-500v50h500v-50z" />
    <glyph glyph-name="grave" unicode="`" horiz-adv-x="197" 
d="M249 834h-183l-86 181h183z" />
    <glyph glyph-name="a" unicode="a" 
d="M20 315l105 306h-125v179h616v-800h-179v136h-238v-136h-179v315zM209 315h228v306h-139z" />
    <glyph glyph-name="b" unicode="b" horiz-adv-x="721" 
d="M648 477l-88 -79l88 -61v-337h-648v799h649zM403 318h-224v-140h276v91zM403 497l52 51v72h-276v-123h224z" />
    <glyph glyph-name="c" unicode="c" horiz-adv-x="698" 
d="M0 0v799h626v-179h-447v-442h447v-178h-626z" />
    <glyph glyph-name="d" unicode="d" horiz-adv-x="764" 
d="M87 -1l-3 621h-83v179h539l163 -621v-179h-616zM400 620h-146v-442h263z" />
    <glyph glyph-name="e" unicode="e" horiz-adv-x="727" 
d="M0 0v799h670l-83 -498h-408v-123h448v-178h-627zM179 480h250l23 140h-273v-140z" />
    <glyph glyph-name="f" unicode="f" horiz-adv-x="698" 
d="M0 0v799h627v-179h-448v-123h350v-179h-350v-318h-179z" />
    <glyph glyph-name="g" unicode="g" horiz-adv-x="761" 
d="M668 0h-668v799h668v-179h-489v-442h310v153h-187v179h366v-510z" />
    <glyph glyph-name="h" unicode="h" 
d="M637 572v-573h-179v394h-279v-394h-179v800h179v-227h458z" />
    <glyph glyph-name="i" unicode="i" horiz-adv-x="271" 
d="M180 800v-180h-180v180h180zM180 517v-517h-180v517h180z" />
    <glyph glyph-name="j" unicode="j" horiz-adv-x="531" 
d="M433 0h-429v179h249v621h180v-800z" />
    <glyph glyph-name="k" unicode="k" horiz-adv-x="727" 
d="M639 404v-404h-179v225h-281v-225h-179v800h179v-396h155l84 395h188l-84 -395h117z" />
    <glyph glyph-name="l" unicode="l" horiz-adv-x="616" 
d="M0 800h179v-621h400v-179h-579v800z" />
    <glyph glyph-name="m" unicode="m" horiz-adv-x="1003" 
d="M0 0v800h392l73 -89l67 88h387v-799h-178v606h-141l-49 -52v-554h-179v554l-51 52h-142v-606h-179z" />
    <glyph glyph-name="n" unicode="n" horiz-adv-x="727" 
d="M179 800v-96l276 -157v253h179v-800h-179v329l-276 157v-486h-179v800h179z" />
    <glyph glyph-name="o" unicode="o" horiz-adv-x="771" 
d="M0 0v800h681v-800h-681zM502 179v442h-323v-442h323z" />
    <glyph glyph-name="p" unicode="p" horiz-adv-x="705" 
d="M572 253h-393v-253h-179v800h665zM453 621h-274v-189h237z" />
    <glyph glyph-name="q" unicode="q" horiz-adv-x="761" 
d="M678 3h-250v-122h-178v122h-249v796h677v-796zM500 621h-321v-440h71v112h178v-112h72v440z" />
    <glyph glyph-name="r" unicode="r" horiz-adv-x="728" 
d="M639 800v-566h-105l72 -234h-188l-72 234h-167v-234h-179v800h639zM460 412v209h-281v-209h281z" />
    <glyph glyph-name="s" unicode="s" horiz-adv-x="721" 
d="M638 0h-638v178h461v136h-461v486h638v-179h-459v-131h459v-490z" />
    <glyph glyph-name="t" unicode="t" horiz-adv-x="719" 
d="M643 621h-220v-621h-201v621h-219v179h640v-179z" />
    <glyph glyph-name="u" unicode="u" horiz-adv-x="718" 
d="M179 0h-179v800h179v-605l265 81v524h179v-800h-179v81z" />
    <glyph glyph-name="v" unicode="v" horiz-adv-x="704" 
d="M595 485l-180 -485h-415v800h179v-621h123l113 306v315h180v-315v0z" />
    <glyph glyph-name="w" unicode="w" horiz-adv-x="1025" 
d="M179 800v-606h142l51 52v454h179v-454l49 -52h141v606h178v-799h-387l-67 88l-73 -89h-392v800h179z" />
    <glyph glyph-name="x" unicode="x" horiz-adv-x="727" 
d="M467 0l-104 316h-66l-105 -316h-198l147 401l-135 394h197l94 -309h66l93 309h202l-135 -394l146 -401h-202z" />
    <glyph glyph-name="y" unicode="y" horiz-adv-x="734" 
d="M639 799v-800h-638v179h459v116h-460v505h180v-325h280v325h179z" />
    <glyph glyph-name="z" unicode="z" horiz-adv-x="730" 
d="M0 349l460 207v65h-460v179h638v-353l-460 -212v-57h460v-178h-638v349z" />
    <glyph glyph-name="braceleft" unicode="{" horiz-adv-x="231" 
d="M68 724h163v-82h-43v-277l-62 -58l62 -58v-280h43v-82h-163v353l-78 67l78 67v350z" />
    <glyph glyph-name="bar" unicode="|" horiz-adv-x="160" 
d="M40 0v700h80v-700h-80z" />
    <glyph glyph-name="braceright" unicode="}" horiz-adv-x="231" 
d="M163 724v-350l78 -67l-78 -67v-353h-163v82h43v280l62 58l-62 58v277h-43v82h163z" />
    <glyph glyph-name="asciitilde" unicode="~" horiz-adv-x="401" 
d="M336 451l70 -35l-99 -135l-192 98l-52 -71l-68 36l99 136l191 -98z" />
    <glyph glyph-name="nonbreakingspace" unicode="&#xa0;" horiz-adv-x="506" 
 />
    <glyph glyph-name="sterling" unicode="&#xa3;" horiz-adv-x="630" 
d="M91 795h294v-170h-124v-176h124v-103h-124v-176h315v-170h-542v170h57v176h-57v103h57v346z" />
    <glyph glyph-name="section" unicode="&#xa7;" horiz-adv-x="460" 
d="M46 801h434v-132h-274v-89h274v-580h-434v132h274v89h-274v580zM320 454h-114v-107h114v107z" />
    <glyph glyph-name="dieresis" unicode="&#xa8;" horiz-adv-x="0" 
d="M66 896h146v-119h-146v119zM313 896h146v-119h-146v119z" />
    <glyph glyph-name="copyright" unicode="&#xa9;" horiz-adv-x="870" 
d="M724 95l-99.002 95c-60.667 -40.667 -127.334 -61 -200.001 -61c-59.333 0 -114.666 16.667 -165.999 50l-137 -258l-111 79l211 259c54 -32 107.333 -48 160 -48c56.667 0 111.334 18.333 164.001 55l-116 112l-56 -67l-107 71l125 142l149 -9l-69 -88l133 -105
c20 28 31.333 58 34 90c0 67.333 -13 123.666 -39 168.999c-45.333 76.667 -124.333 115.667 -237 117c-42 0.666992 -83.667 -12 -125 -38c62.667 56.667 124.667 85 186 85c94.667 0 173.334 -30.667 236.001 -92c62.667 -60.667 94 -138 94 -232
c0 -19.333 -1.5 -38 -4.5 -56s-7 -34.667 -12 -50s-11 -28.666 -18 -39.999s-14.5 -20 -22.5 -26l101 -80z" />
    <glyph glyph-name="registered" unicode="&#xae;" horiz-adv-x="764" 
d="M679 138c-14 0 -26 1.00098 -36 3.00098c-5.33301 2 -12.333 5 -21 9c2 -2 3 -6 3 -12c-7.33301 0 -13.166 2.66699 -17.499 8s-7.5 8 -9.5 8l5 -4c-2 -1.33301 -3 -3.66602 -3 -6.99902l-4 5l-9 -19l2 6c0 2.66699 -2.33301 6.16699 -7 10.5s-7 8.16602 -7 11.499h9
c-3.33301 3.33301 -5 6.66602 -5 9.99902c4 0 9 -3.33301 15 -10c6 0 9 2.33301 9 7c16.667 -8.66699 32.667 -15 48 -19s29.666 -6.33301 42.999 -7h-15zM669 344.001c0 -15.333 -8.66992 -22.9971 -26.0029 -22.9971c-4 0 -10 1.33301 -18 4l-15 5
c-11.333 -9.33301 -17 -17.333 -17 -24c0 -2.66699 2.33301 -6.66699 7 -12s8.33398 -8 11.001 -8c5.33301 0 11.666 4.66699 18.999 14c0 3.33301 -0.333008 5.33301 -1 6v3c-0.666992 5.33301 -1.16699 8.66602 -1.5 9.99902s-0.5 0.666016 -0.5 -2.00098
c4 0 7.5 -3.16699 10.5 -9.5s4.5 -11.833 4.5 -16.5c0 -8 -5 -15.333 -15 -22c-6 -4.66699 -9.66699 -8 -11 -10c2 0 4.5 -0.333008 7.5 -1s5.16699 -1 6.5 -1c2 0 4.66699 1.66699 8 5s6 5 8 5c0 -2.66699 -1.66699 -7.66699 -5 -15s-6 -11.666 -8 -12.999
c-4 -6.66699 -7 -10 -9 -10h-28c-1.33301 0 -2 -1 -2 -3c0 -2.66699 1.16699 -6.33398 3.5 -11.001s3.5 -8.33398 3.5 -11.001c-3.33301 4 -9 6 -17 6c0 -2.66699 1.66699 -5.5 5 -8.5s6 -4.5 8 -4.5c-0.666992 0 -2.33398 -0.666992 -5.00098 -2c-9.33301 0 -18 5 -26 15
c-8 -15.333 -12 -24.666 -12 -27.999s1 -6.33301 3 -9c0 -10.667 -6.33301 -22.334 -19 -35.001c-6.66699 -6.66699 -10.334 -12 -11.001 -16l-2 3l-3 -3c0.666992 0 1.66699 -0.666992 3 -2l2 -1c-3.33301 -5.33301 -5.66602 -8 -6.99902 -8c-4 0 -7 1.66699 -9 5
c0.666992 0 1.33398 0.333008 2.00098 1h1c-0.666992 0.666992 -1 1.16699 -1 1.5s-1 0.5 -3 0.5s-4 -3 -6 -9s-4.33301 -9.33301 -7 -10h-9c-1.33301 0 -2.66602 -1.66699 -3.99902 -5v11c-8 0 -15.833 -2.66699 -23.5 -8s-11.5 -11.666 -11.5 -18.999l3 -3
c-2 0 -5.66699 -2.5 -11 -7.5s-8 -8.5 -8 -10.5s1 -3.33301 3 -4l-12 -12l2 -12c0 -13.333 -6 -20 -18 -20h-266c-1.33301 0 -2 1 -2 3c0 9.33301 2.33301 14.333 7 15v1c0 1.33301 -0.666992 2.66602 -2 3.99902l5 5c0 -2 -1 0 -3 6c0.666992 0.666992 1.66699 1 3 1l2 2v9
c0.666992 1.33301 1.83398 3.83301 3.50098 7.5s4.16699 8.83398 7.5 15.501c4.66699 9.33301 7 17.666 7 24.999l-9 -4c-1.33301 0 -3.83301 0.333008 -7.5 1s-8.83398 1.66699 -15.501 3l3 4l7 9l7.5 9.5c2.33301 3 3.5 5.5 3.5 7.5c4.66699 16.667 7 30.334 7 41.001
c0 4 -7 9.66699 -21 17c-3.33301 3.33301 -5 9.33301 -5 18c-2 0 -5 0.666992 -9 2c-1.33301 0 -2.66602 -0.666992 -3.99902 -2c0 -2 0.666992 -3.66699 2 -5l-1 -1h-1c-1.33301 0 -3 1.66699 -5 5s-3.33301 5 -4 5c-3.33301 0 -5 -1.33301 -5 -4
c0 -2 3.66699 -6.66699 11 -14c-3.33301 -5.33301 -5.33301 -8 -6 -8c-11.333 0 -19.333 9.33301 -24 28c-1.33301 4.66699 -2.16602 8.5 -2.49902 11.5s-0.833008 5.16699 -1.5 6.5c-0.666992 2.66699 -2.66699 6.5 -6 11.5s-5 9.5 -5 13.5c0 3.33301 5.33301 8 16 14l2 2
c0 6.66699 -2 10 -6 10s-6 -4 -6 -12c-2.66699 0 -4.33398 4.33301 -5.00098 13c-0.666992 2.66699 -1.16699 5 -1.5 7s-1.83301 4.33301 -4.5 7c-9.33301 17.333 -14 37.666 -14 60.999v6.5c0 3 0.333008 7.16699 1 12.5l1 22c0.666992 5.33301 1 9.16602 1 11.499v4.5
c-1.33301 -1.33301 -3.66602 -2 -6.99902 -2l-7 -1c6.66699 4.66699 10 8.33398 10 11.001c0 3.33301 -5.66699 5 -17 5l9 7l-9 2c0.666992 4 3 7.33301 7 10l12 6c4.66699 2 8.33398 6 11.001 12c0.666992 0.666992 1 1.33398 1 2.00098l2 3
c0.666992 0.666992 1 1.33398 1 2.00098c2 -4.66699 4.33301 -7 7 -7c2.66699 2 6.5 6.83301 11.5 14.5s7.5 12.834 7.5 15.501c-6 0 -12.333 -4 -19 -12c0 4.66699 2 9.16699 6 13.5s6 6.83301 6 7.5c0 4.66699 -6.33301 8.33398 -19 11.001
c5.33301 0 9.33301 2.33301 12 7c-0.666992 3.33301 -1.16699 7.5 -1.5 12.5s-0.5 10.167 -0.5 15.5s3 18.666 9 39.999l2 12c0.666992 4.66699 5.33398 13 14.001 25l7 9l13 14c0 -3.33301 1 -0.333008 3 9c8.66699 28.667 34 49.667 76 63
c5.33301 1.33301 12.666 3.33301 21.999 6s20.666 6.33398 33.999 11.001l17.5 10.5c6.33301 3.66699 12.833 7.16699 19.5 10.5l6 2c7.33301 1.33301 15.666 2.66602 24.999 3.99902s19.333 2.66602 30 3.99902c3.33301 0.666992 6.83301 1 10.5 1h10.5
c34 0 73 -10.667 117 -32c4.66699 -4.66699 11.334 -10.167 20.001 -16.5l24 -17.5c4 -3.33301 9.66699 -12.666 17 -27.999s11.333 -26 12 -32v-23c0 2 0.5 2.33301 1.5 1s2 -3.33301 3 -6s2 -5.5 3 -8.5s1.5 -4.83301 1.5 -5.5c0 -1.33301 -0.666992 -4 -2 -8
c0 -2.66699 -0.666992 -6.33398 -2 -11.001l-4 -14.5l-4 -14.5c-1.33301 -4.66699 -2 -8.33398 -2 -11.001c0 -23.333 18 -44.333 54 -63c16 -8.66699 28.667 -13.334 38 -14.001c0 -1.33301 0.333008 -2.33301 1 -3l1 -4c-18.667 -2 -28.667 -3.33301 -30 -4l-2 -6l-2 -6
c-2 -2 -5 -5.66699 -9 -11l11 -7l11 13h6c0 -2 -1.16699 -4.66699 -3.5 -8l-7.5 -10.5l-7.5 -10c-2.33301 -3 -3.5 -5.5 -3.5 -7.5c0 -4 0.333008 -6.66699 1 -8l1 -12c0.666992 -3.33301 1 -6 1 -8c0 -1.33301 -0.5 -3.83301 -1.5 -7.5s-1.5 -6.5 -1.5 -8.5
c0 -16 6.66699 -26 20 -30c8.66699 0 16 4 22 12zM556.997 136.004c0 -1.33301 -0.666992 -2.66699 -2 -4l-3 2c1.33301 1.33301 3 2 5 2zM634.997 90.0029c0 -2.66699 -7.33789 -8.99902 -22.0049 -18.999s-22 -17.333 -22 -22s2 -7 6 -7c2 0 4.83301 0.333008 8.5 1
s6.5 1 8.5 1c-5.33301 -8 -22.666 -15.667 -51.999 -23c-15.333 -2.66699 -26 -6.33398 -32 -11.001h-28c0.666992 2 10.667 6.66699 30 14c4 2 10.667 9.66699 20 23c4.66699 6.66699 8.33398 12.167 11.001 16.5s4.33398 7.83301 5.00098 10.5
c0 9.33301 1.33301 20.333 4 33c0.666992 4 4.66699 6 12 6c2.66699 0 5.33398 -2.16699 8.00098 -6.5s5.33398 -6.5 8.00098 -6.5c2 0 5.16699 0.333008 9.5 1s7.83301 1 10.5 1c10 0 15 -4 15 -12zM464.992 10.0039l-27 0.000976562l9.5 9.5l13.5 13.5
c0 8 2.33301 18 7 30c5.33301 15.333 10.5 23.666 15.5 24.999s10.5 2 16.5 2c4 0 6 -2 6 -6zM101.992 76.0049l-14.001 -22c-2 -3.33301 -5 -5 -9 -5c-3.33301 0 -5 3.66699 -5 11c8.66699 10.667 16.334 16 23.001 16h5zM133.991 10.0049h-10v4h10v-4zM111.991 60.0049
l-1 -1.00098v-1c-8 -13.333 -12 -29.333 -12 -48h-25c4.66699 2.66699 8.66699 8.33398 12 17.001c3.33301 9.33301 6.33301 16 9 20c4 8.66699 8.33301 13 13 13h4zM70.9912 25.0039c0 -7.33301 -3 -11 -9 -11h-2c2 7.33301 5.66699 11 11 11zM410.991 702.004
c-0.666992 1.33301 -1.66797 2.66602 -3.00098 3.99902s-2.66602 3 -3.99902 5c0 1.33301 0.333008 2.66602 1 3.99902v5c0 2 0.333008 3.33301 1 4c-2.66699 -3.33301 -6 -5.66602 -10 -6.99902h-11c3.33301 -3.33301 5 -5.66602 5 -6.99902v-12c2 0 4 1 6 3l4 2h5z
M529.99 456.004c0 5.33301 -0.503906 11.834 -1.50391 19.501l-3.5 27.5l-3.5 27.5c-1 7.66699 -1.5 14.167 -1.5 19.5c0 2.66699 0.833008 6.83398 2.5 12.501s2.5 10.167 2.5 13.5c-20 40.667 -64 61 -132 61c-37.333 0 -74 -4.66699 -110 -14
c-48 -13.333 -72 -34.333 -72 -63v-7c2.66699 -1.33301 4.33398 -2 5.00098 -2c2 0 5 0.666992 9 2l27 13c8.66699 -1.33301 19.5 -2.83301 32.5 -4.5s28.167 -3.83398 45.5 -6.50098c8 -2.66699 15.667 -7.33398 23 -14.001v-6l-2 -17v-11l7 -14c0 -12 -2.66699 -18 -8 -18
c-4.66699 0 -7 2.33301 -7 7l-6 -5l-2 2c1.33301 1.33301 2 3 2 5c0 1.33301 -0.333008 2 -1 2h-3l-2 -1v7c-0.666992 2 -1 4 -1 6s1.66699 5.66699 5 11c-7.33301 0 -14.333 0.666992 -21 2l-9 3c-2.66699 -4.66699 -7.66699 -7 -15 -7
c-2.66699 0 -6.16699 0.666992 -10.5 2s-7.5 2 -9.5 2c1.33301 -5.33301 8 -9 20 -11c-0.666992 -1.33301 -2.66699 -2.33301 -6 -3s-9.33301 -4.66699 -18 -12c-2.66699 -2.66699 -5.33398 -4.66699 -8.00098 -6c-2 0 -3 1 -3 3h-34c-6.66699 0 -10 -4.66699 -10 -14
c0 -2.66699 3 -9 9 -19c6.66699 -9.33301 10 -15.333 10 -18c0.666992 0.666992 1.33398 1.16699 2.00098 1.5s1.33398 0.833008 2.00098 1.5c6.66699 0 10 -7 10 -21h4v4c10.667 -6.66699 16 -15 16 -25v-9c0 -1.33301 -2.66699 -2 -8 -2c-4 0 -6.66699 0.666992 -8 2
c-1.33301 0 -2 -0.666992 -2 -2c0 -10.667 8.33301 -20 25 -28c0 8 10.667 14.667 32 20c10.667 2.66699 18 6 22 10c3.33301 3.33301 6 6.33301 8 9s3.66699 4.66699 5 6c0 4.66699 -5.33301 7.33398 -16 8.00098c-4.66699 0 -9.66699 2.33301 -15 7c0 4 2.33301 6 7 6v-6
h5c2 14 10.667 21 26 21c3.33301 0 7.83301 -1.33301 13.5 -4s9.83398 -4 12.501 -4s6.66699 0.5 12 1.5s9.66602 1.5 12.999 1.5h7c3.33301 -2 5 -4.66699 5 -8c0 -4 -4.66699 -6 -14 -6l-4 1c-2 0.666992 -4.33301 1 -7 1c-1.33301 0 -3.83301 -1.16699 -7.5 -3.5
s-6.16699 -3.5 -7.5 -3.5s-4 1 -8 3c-2 1.33301 -3.66699 2.5 -5 3.5s-2.5 1 -3.5 0s-1.66699 -3.5 -2 -7.5s-0.5 -10.333 -0.5 -19c1.33301 -4 2 -9.33301 2 -16l-6 -8l-2 -3c50 -8.66699 78.667 -19 86 -31c0 -1.33301 -3.33301 -2 -10 -2c-2 0 -6 1.16699 -12 3.5
s-10.333 3.5 -13 3.5h-55c-1.33301 0 -2 -2.66699 -2 -8c0 -8 10 -13 30 -15c20 -1.33301 30 -4.33301 30 -9c0 -2.66699 -2.33301 -5 -7 -7c-36.667 -0.666992 -65 -4.66699 -85 -12c-3.33301 -10 -5 -16.333 -5 -19c20.667 -14 32.334 -21 35.001 -21h11
c1.33301 -0.666992 3.83301 -2.33398 7.5 -5.00098s7.16699 -4 10.5 -4c4.66699 0 12.167 0.833008 22.5 2.5s18.166 2.5 23.499 2.5l8 2c10 3.33301 17.333 8.33301 22 15c1.33301 2 2.5 4 3.5 6l3.5 7c0.666992 0.666992 3.33398 1 8.00098 1c0 -8 3.33301 -12 10 -12
c4.66699 0 7 1.66699 7 5v23c0 3.33301 2.33301 6.33301 7 9c0.666992 0.666992 1.33398 1 2.00098 1l3 1c0 14.667 3.33301 22 10 22l3 -6c8 0 12 17 12 51c0.666992 -2 1.66699 -3 3 -3s2 1 2 3c0.666992 2.66699 1.66699 7.5 3 14.5s3.33301 16.833 6 29.5
c4.66699 16.667 7 31.667 7 45zM261.986 493.005l-4 -2l2 -3zM451.986 198.005c-2 -1.33301 -3 -2.66797 -3 -4.00098v-3c2 0.666992 3 2.33398 3 5.00098v2zM313.986 328.003c-4 1.33301 -7.66699 2 -11 2c-1.33301 1.33301 -3 2 -5 2c-3.33301 0 -5 -2.33301 -5 -7
c14 0.666992 21 1.66699 21 3zM454.986 133.003c0 0.666992 -0.333008 1 -1 1h-2c-10.667 -4 -16 -8.33301 -16 -13v-1c0 -1.33301 0.666992 -2 2 -2h1c5.33301 0 11 4.66699 17 14zM425.986 132.003c-1.33301 4 -2.66699 6.00195 -4 6.00195l-25 -2
c-13.333 -7.33301 -26.333 -16.333 -39 -27v5c0 1.33301 0.333008 3.5 1 6.5s1 5.5 1 7.5c0 5.33301 -1.66699 8.66602 -5 9.99902c-4 -3.33301 -10 -13.333 -18 -30c-8 -16 -12 -27 -12 -33c2.66699 0 5.5 1.66699 8.5 5s4.83301 5.33301 5.5 6l11 3c4.66699 2 8 3 10 3
c4 2.66699 9 5.66699 15 9l22 12c4.66699 2 12.667 6 24 12c3.33301 3.33301 5 5.66602 5 6.99902zM325.985 130.005c-0.666992 0.666992 -1.33398 1.5 -2.00098 2.5s-1.66699 2.16699 -3 3.5l-5 -9h2c0.666992 0 1.83398 0.5 3.50098 1.5s3.16699 1.5 4.5 1.5z
M334.985 136.005c-4.66699 -4.66699 -11.666 -16 -20.999 -34v-3c3.33301 0 7.66602 5 12.999 15c5.33301 10.667 8 18 8 22zM311.986 111.005c-1.33301 2 -2.33301 3 -3 3l-2 -8l2 -2c2 2 3 4.33301 3 7zM311.986 74.0049c-3.33301 -1.33301 -5 -3.66699 -5 -7v-2
c3.33301 1.33301 5 4 5 8v1zM300.986 62.0039c0 2 -3.66797 4.66797 -11.001 8.00098c-2.66699 -2.66699 -4 -4.33398 -4 -5.00098l-3 3c-0.666992 0.666992 -1.16699 1 -1.5 1s-0.833008 0.333008 -1.5 1c-1.33301 0 -2 -2.33301 -2 -7c1.33301 -3.33301 5.33301 -5 12 -5
s10.334 1.33301 11.001 4zM505.985 535.005c0 -10 -3.00098 -15.001 -9.00098 -15.001c-3.33301 0 -5.66602 1.66699 -6.99902 5c-4 1.33301 -7 2 -9 2h-5l-5 -1c0 -2.66699 4.66699 -7 14 -13c10 -5.33301 15 -11.666 15 -18.999c0 -4 -1 -6 -3 -6h-18
c-1.33301 0 -3.33301 2.66699 -6 8s-5 8 -7 8c-1.33301 0 -3.66602 -0.833008 -6.99902 -2.5s-5.66602 -2.5 -6.99902 -2.5c-2.66699 0 -4.33398 0.333008 -5.00098 1c-4 1.33301 -7.66699 5 -11 11c-2.66699 0 -6.33398 -0.5 -11.001 -1.5s-8 -1.5 -10 -1.5
c-14 0 -21 4.66699 -21 14c0 17.333 6.33301 26 19 26h71c14.667 0 22 -4.33301 22 -13zM499.984 342.004c0 -6.66699 -1.66699 -10 -5 -10v15c3.33301 0 5 -1.66699 5 -5zM481.984 312.004l-2 -6l-4 2zM454.984 319.004c0 -4 -0.333008 -7 -1 -9l-5 -5
c-4.66699 2.66699 -7 8.66699 -7 18v16c-3.33301 2 -6.33301 5 -9 9c0 4 1.33301 6 4 6c12 0 18 -11.667 18 -35zM423.984 353.004c0 -3.33301 -0.666992 -6.33398 -2 -9.00098c-3.33301 1.33301 -5 6 -5 14l1 1l1 1c3.33301 -1.33301 5 -3.66602 5 -6.99902z
M458.984 514.003c0 2.66699 -1.33301 3.99805 -4 3.99805c-4 -1.33301 -6 -2.66602 -6 -3.99902s0.666992 -2.66602 2 -3.99902l1 -1h2c3.33301 1.33301 5 3 5 5z" />
    <glyph glyph-name="acute" unicode="&#xb4;" horiz-adv-x="833" 
d="M355 994h158l-86 -181h-158z" />
    <glyph glyph-name="paragraph" unicode="&#xb6;" horiz-adv-x="465" 
d="M190 0v359h-165v341h425v-75h-45v-625h-75v625h-65v-625h-75z" />
    <glyph glyph-name="Agrave" unicode="&#xc0;" horiz-adv-x="719" 
d="M142 620h-125v179h600v-800h-179v136h-238l-36 -136h-184zM438 314v306h-112l-80 -306h192zM477 831h-183l-86 181h183z" />
    <glyph glyph-name="Aacute" unicode="&#xc1;" horiz-adv-x="719" 
d="M142 620h-125v179h600v-800h-179v136h-238l-36 -136h-184zM438 314v306h-112l-80 -306h192zM353 1019h158l-86 -181h-158z" />
    <glyph glyph-name="Adieresis" unicode="&#xc4;" horiz-adv-x="719" 
d="M142 620h-125v179h600v-800h-179v136h-238l-36 -136h-184zM438 314v306h-112l-80 -306h192zM149 956h146v-119h-146v119zM396 956h146v-119h-146v119z" />
    <glyph glyph-name="AE" unicode="&#xc6;" horiz-adv-x="1194" 
d="M438 -1v136h-238l-36 -136h-184l162 621h-125v179h1059v-179h-448v-123h350v-179h-350v-140h448v-179h-638zM438 314v306h-112l-80 -306h192z" />
    <glyph glyph-name="Egrave" unicode="&#xc8;" horiz-adv-x="701" 
d="M0 -1v800h627v-179h-448v-123h350v-179h-350v-140h448v-179h-627zM453 834h-183l-86 181h183z" />
    <glyph glyph-name="Eacute" unicode="&#xc9;" horiz-adv-x="701" 
d="M0 -1v800h627v-179h-448v-123h350v-179h-350v-140h448v-179h-627zM301 1019h158l-86 -181h-158z" />
    <glyph glyph-name="Edieresis" unicode="&#xcb;" horiz-adv-x="701" 
d="M0 -1v800h627v-179h-448v-123h350v-179h-350v-140h448v-179h-627zM123 951h146v-119h-146v119zM370 951h146v-119h-146v119z" />
    <glyph glyph-name="Igrave" unicode="&#xcc;" horiz-adv-x="293" 
d="M5 -1v800h179v-800h-179zM189 850h-183l-86 181h183z" />
    <glyph glyph-name="Iacute" unicode="&#xcd;" horiz-adv-x="302" 
d="M5 -1v800h179v-800h-179zM105 994h158l-86 -181h-158z" />
    <glyph glyph-name="Idieresis" unicode="&#xcf;" horiz-adv-x="302" 
d="M5 -1v800h179v-800h-179zM-92 972h146v-119h-146v119zM155 972h146v-119h-146v119z" />
    <glyph glyph-name="Ograve" unicode="&#xd2;" horiz-adv-x="775" 
d="M0 0v800h680v-800h-680zM501 179v442h-322v-442h322zM479 834h-183l-86 181h183z" />
    <glyph glyph-name="Oacute" unicode="&#xd3;" horiz-adv-x="775" 
d="M0 0v800h680v-800h-680zM501 179v442h-322v-442h322zM322 1006h158l-86 -181h-158z" />
    <glyph glyph-name="Odieresis" unicode="&#xd6;" horiz-adv-x="775" 
d="M0 0v800h680v-800h-680zM501 179v442h-322v-442h322zM144 963h146v-119h-146v119zM391 963h146v-119h-146v119z" />
    <glyph glyph-name="Uacute" unicode="&#xda;" horiz-adv-x="733" 
d="M0 0v800h179v-620h294v620h178v-800h-651zM331 994h158l-86 -181h-158z" />
    <glyph glyph-name="Udieresis" unicode="&#xdc;" horiz-adv-x="733" 
d="M0 0v800h179v-620h294v620h178v-800h-651zM125 957h146v-119h-146v119zM372 957h146v-119h-146v119z" />
    <glyph glyph-name="Yacute" unicode="&#xdd;" horiz-adv-x="740" 
d="M238 -1v296h-238v504h179v-325h280v325h180v-504h-222v-296h-179zM305 1007h158l-86 -181h-158z" />
    <glyph glyph-name="agrave" unicode="&#xe0;" 
d="M20 315l105 306h-125v179h616v-800h-179v136h-238v-136h-179v315zM209 315h228v306h-139zM471 834h-183l-86 181h183z" />
    <glyph glyph-name="aacute" unicode="&#xe1;" 
d="M20 315l105 306h-125v179h616v-800h-179v136h-245v-136h-172v315zM213 315h224v306h-135zM378 1009h158l-86 -181h-158z" />
    <glyph glyph-name="adieresis" unicode="&#xe4;" 
d="M20 315l105 306h-125v179h616v-800h-179v136h-238v-136h-179v315zM209 315h228v306h-139zM151 962h146v-119h-146v119zM398 962h146v-119h-146v119z" />
    <glyph glyph-name="ae" unicode="&#xe6;" horiz-adv-x="1194" 
d="M438 -1v136h-238l-36 -136h-184l162 621h-125v179h1059v-179h-448v-123h350v-179h-350v-140h448v-179h-638zM438 314v306h-112l-80 -306h192z" />
    <glyph glyph-name="egrave" unicode="&#xe8;" horiz-adv-x="727" 
d="M0 0v799h670l-83 -498h-408v-123h448v-178h-627zM179 480h250l23 140h-273v-140zM494 834h-183l-86 181h183z" />
    <glyph glyph-name="eacute" unicode="&#xe9;" horiz-adv-x="693" 
d="M0 0v799h670l-83 -498h-408v-123h448v-178h-627zM179 480h250l23 140h-273v-140zM303 1023h158l-86 -181h-158z" />
    <glyph glyph-name="edieresis" unicode="&#xeb;" horiz-adv-x="693" 
d="M0 0v799h670l-83 -498h-408v-123h448v-178h-627zM179 480h250l23 140h-273v-140zM129 962h146v-119h-146v119zM376 962h146v-119h-146v119z" />
    <glyph glyph-name="igrave" unicode="&#xec;" horiz-adv-x="271" 
d="M0 517v-517h180v517h-180zM180 619h-183l-86 181h183z" />
    <glyph glyph-name="idieresis" unicode="&#xef;" horiz-adv-x="271" 
d="M180 718v-718h-180v718h180zM-102 896h146v-119h-146v119zM145 896h146v-119h-146v119z" />
    <glyph glyph-name="ograve" unicode="&#xf2;" horiz-adv-x="771" 
d="M0 0v800h681v-800h-681zM502 179v442h-323v-442h323zM264 974l150 -86l-32 -54l-155 73z" />
    <glyph glyph-name="oacute" unicode="&#xf3;" horiz-adv-x="771" 
d="M0 0v800h681v-800h-681zM502 179v442h-323v-442h323zM304 1008h158l-86 -181h-158z" />
    <glyph glyph-name="odieresis" unicode="&#xf6;" horiz-adv-x="771" 
d="M0 0v800h681v-800h-681zM502 179v442h-323v-442h323zM138 969h146v-119h-146v119zM385 969h146v-119h-146v119z" />
    <glyph glyph-name="ugrave" unicode="&#xf9;" horiz-adv-x="718" 
d="M179 0h-179v800h179v-605l265 81v524h179v-800h-179v81zM409 834h-183l-86 181h183z" />
    <glyph glyph-name="uacute" unicode="&#xfa;" horiz-adv-x="718" 
d="M179 0h-179v800h179v-605l265 81v524h179v-800h-179v81zM301 994h158l-86 -181h-158z" />
    <glyph glyph-name="udieresis" unicode="&#xfc;" horiz-adv-x="718" 
d="M179 0h-179v800h179v-605l265 81v524h179v-800h-179v81zM110 964h146v-119h-146v119zM357 964h146v-119h-146v119z" />
    <glyph glyph-name="yacute" unicode="&#xfd;" horiz-adv-x="734" 
d="M639 799v-800h-638v179h459v116h-460v505h180v-325h280v325h179zM331 994h158l-86 -181h-158z" />
    <glyph glyph-name="ydieresis" unicode="&#xff;" horiz-adv-x="734" 
d="M31 960h146v-119h-146v119zM468 960h146v-119h-146v119zM639 799v-800h-638v179h459v116h-460v505h180v-325h280v325h179z" />
    <glyph glyph-name="OE" unicode="&#x152;" horiz-adv-x="1324" 
d="M501 0h-501v800l1128 -1v-179h-448v-123h350v-179h-350v-140h448v-179zM501 179v442h-322v-442h322z" />
    <glyph glyph-name="glyph106" unicode="&#x401;" horiz-adv-x="694" 
d="M0 -1v800h628v-179h-449v-123h350v-179h-350v-140h449v-179h-628zM93 835v171h171v-171h-171zM364 836v171h171v-171h-171z" />
    <glyph glyph-name="afii10052" unicode="&#x403;" horiz-adv-x="615" 
d="M0 800h579v-179h-400v-621h-179v800zM272 994h158l-86 -181h-158z" />
    <glyph glyph-name="glyph107" unicode="&#x405;" horiz-adv-x="721" 
d="M638 0h-638v178h461v136h-461v486h638v-179h-459v-131h459v-490z" />
    <glyph glyph-name="uni0406" unicode="&#x406;" horiz-adv-x="833" 
 />
    <glyph glyph-name="glyph109" unicode="&#x407;" horiz-adv-x="1224" 
d="M580 358c0 10.667 -2.33398 17.333 -7.00098 20h-4c-3.33301 -6 -4.66602 -21.667 -3.99902 -47l5 -5c6.66699 6 10 16.667 10 32zM1007 319.999c24 -3.33301 39.6699 -11.999 47.0029 -25.999c8 -14.667 5.66699 -33.334 -7 -56.001c-12 -22 -26 -37 -42 -45
c-6.66699 -3.33301 -16.167 -6.83301 -28.5 -10.5s-28.166 -7.83398 -47.499 -12.501c-34 -8 -58 -17.333 -72 -28c-31.333 -23.333 -71.666 -42.333 -120.999 -57c-69.333 -21.333 -112.333 -35.333 -129 -42c-5.33301 2 -17.666 3 -36.999 3
c-16.667 0 -28.667 3.66699 -36 11c-10 0 -17.333 7.33301 -22 22c-4 15.333 -7 24 -9 26l-4 -5c1.33301 -20 1.33301 -49.667 0 -89l-12 -13c-8 -0.666992 -18 -0.833984 -30 -0.500977s-25.667 0.833008 -41 1.5c-37.333 2 -57.666 5 -60.999 9c0 1.33301 1 3.83301 3 7.5
s3 5.83398 3 6.50098c0 3.33301 -6 7.66602 -18 12.999c-12 4.66699 -20.667 7.66699 -26 9l-9 8c3.33301 4.66699 5 10 5 16c0 13.333 -7.66699 29.666 -23 48.999c-15.333 20 -29 30.333 -41 31c-3.33301 1.33301 -6.83301 3.5 -10.5 6.5s-8.16699 6.16699 -13.5 9.5
c-2.66699 8 -10.334 21 -23.001 39l-1 18l8 2c18.667 -36 53 -54 103 -54c44.667 0 85 13 121 39c39.333 29.333 61 65 65 107c0.666992 1.33301 2.66699 2.83301 6 4.5l10.5 5.5c3.66699 2 7.16699 4.16699 10.5 6.5s5.33301 4.83301 6 7.5c4 16 6 38.333 6 67
c0 59.333 -9 95.666 -27 108.999c2 20.667 -4 35.667 -18 45c0 3.33301 -2.83301 7.5 -8.5 12.5s-8.5 9.16699 -8.5 12.5c-4.66699 4 -16.334 7.33301 -35.001 10c-17.333 2.66699 -27.666 7 -30.999 13l-12 1l-3 -9c4 -6 11 -9 21 -9l16 -15.5l16 -15.5
c17.333 -18 25.666 -28.333 24.999 -31c-0.666992 -1.33301 -4 -3.16602 -10 -5.49902s-8.33301 -5.16602 -7 -8.49902c16 -11.333 24 -18.666 24 -21.999c0 -4 -2 -8.33301 -6 -13c-8.66699 -0.666992 -21 1.33301 -37 6c-18 6 -30.333 9 -37 9
c-10.667 0 -20.334 -4 -29.001 -12c-6 0 -12 1.33301 -18 4l-2 13c7.33301 4 12.333 9.33301 15 16c2 3.33301 10.333 6.33301 25 9c2.66699 4 8.33398 6.66699 17.001 8c10 0.666992 16.667 1.66699 20 3c-5.33301 9.33301 -12 14 -20 14
c-6.66699 0 -18.334 -5 -35.001 -15c-16 -10 -26.333 -14.667 -31 -14c-0.666992 2.66699 -1.5 5.83398 -2.5 9.50098l-3.5 13.5l4 9c21.333 5.33301 32 11 32 17s-17.333 15.333 -52 28c-5.33301 2 -13.333 9 -24 21c-11.333 12 -21 19 -29 21l-2 7
c3.33301 1.33301 14 -0.666992 32 -6c16.667 -4.66699 28 -7 34 -7l7 5c-8.66699 13.333 -19.334 19.666 -32.001 18.999l-20 13c-8 5.33301 -17 11.666 -27 18.999l-13 -2c-4.66699 -10 -2.66699 -18.333 6 -25c6.66699 -4.66699 9.66699 -9 9 -13h-13
c-4.66699 14.667 -24.334 30 -59.001 46l-13 -6c2 -3.33301 3 -6 3 -8s-4 -10 -12 -24c-17.333 -23.333 -25.333 -39.666 -24 -48.999c1.33301 -3.33301 -3.66699 -26 -15 -68c-10.667 -41.333 -17.334 -63.333 -20.001 -66c-1.33301 -5.33301 1 -10.666 7 -15.999
c0 -4.66699 0.166992 -11.334 0.5 -20.001s0.833008 -19.667 1.5 -33c0.666992 -22.667 0.666992 -40 0 -52c0 -4.66699 -2.66699 -10.167 -8 -16.5s-8.33301 -11.166 -9 -14.499l-7 -2c-1.33301 3.33301 -2.66602 13.333 -3.99902 30c-1.33301 14 -4.66602 23 -9.99902 27
l-13 -3c-5.33301 -7.33301 -8 -14.333 -8 -21c0 -10 5 -20.333 15 -31c9.33301 -10.667 14.666 -17.667 15.999 -21l15 -3c10 12 16.333 18 19 18c6 0 9 -6 9 -18v-21c0.666992 -8 19 -32 55 -72c0 -2 0.833008 -4.33301 2.5 -7l5.5 -8.5c2 -3 3.66699 -6 5 -9
s1.66602 -6.16699 0.999023 -9.5c-2 -8 -2.33301 -27.333 -1 -58c0.666992 -24.667 -1.33301 -43.334 -6 -56.001c-8.66699 22 -17.334 33.333 -26.001 34l-62 51l-44 36c-35.333 31.333 -56.333 71 -63 119c-0.666992 4.66699 -1.16699 10.167 -1.5 16.5
s-0.5 14.166 -0.5 23.499c0 50.667 7.33301 86.667 22 108c8.66699 12.667 13 25.334 13 38.001c0 3.33301 -0.5 7.66602 -1.5 12.999s-2.16699 10.833 -3.5 16.5s-2.5 11.167 -3.5 16.5s-1.5 10 -1.5 14c0 31.333 19 74.666 57 129.999c29.333 42 71 73.667 125 95
c48.667 19.333 100.667 29 156 29c96.667 0 174.667 -25.667 234 -77c18 -15.333 37.667 -43.666 59 -84.999c10 -20.667 28.333 -41.667 55 -63c24.667 -19.333 48.667 -34.333 72 -45c10.667 -1.33301 21.167 -3.16602 31.5 -5.49902s20.833 -5.16602 31.5 -8.49902
c26 -8 43.333 -27.333 52 -58c1.33301 -4.66699 6 -31.667 14 -81c4 -24 16.667 -39.667 38 -47c1.33301 -0.666992 7 -1.5 17 -2.5s24.667 -2.83301 44 -5.5zM341.002 423c14.667 -10.667 21.332 -21.0029 19.999 -31.0029c-1.33301 -6 -8.66602 -9.66699 -21.999 -11
c-18.667 -2 -28.667 -3.33301 -30 -4c-1.33301 1.33301 -4 2.33301 -8 3s-8.33301 1.33398 -13 2.00098s-9 1.5 -13 2.5s-6.66699 2.5 -8 4.5c1.33301 4 3.66602 7.33301 6.99902 10c6 6 12.833 11 20.5 15s14.5 5 20.5 3c8 6 11.333 15 10 27
c-0.666992 8 -1.16699 14.5 -1.5 19.5s-0.166016 8.83301 0.500977 11.5l8 5c1.33301 -2.66699 3.5 -5.66699 6.5 -9s6.16699 -7.33301 9.5 -12c0 -3.33301 -1.33301 -8.16602 -4 -14.499s-4 -11.166 -4 -14.499c0 -2.66699 0.333008 -5 1 -7zM221 570.997
c14.667 0 29.3311 -6 43.998 -18s24.334 -25.333 29.001 -40c-12.667 -34.667 -24 -52 -34 -52c-1.33301 0 -10.333 3.66699 -27 11l-19 8.5c-5.33301 2.33301 -9.33301 3.83301 -12 4.5c-5.33301 1.33301 -12 0 -20 -4l-25 -11l-3 12c6.66699 8.66699 19.667 21.667 39 39
l20.5 5c8.33301 2 17.833 4.66699 28.5 8c-2 11.333 -8.66699 14.333 -20 9c-17.333 5.33301 -29.333 4 -36 -4l-16 -2l3 11l16 5c8.66699 12 19.334 18 32.001 18zM144.997 513.997c0 4.66699 2.33203 9.33398 6.99902 14.001s9.33398 6.66699 14.001 6
c0.666992 -4.66699 -4.33301 -11.334 -15 -20.001h-6zM391.996 328.997c-32.667 -30 -52.667 -44.3311 -60 -42.998c-31.333 2 -47 6 -47 12c0 5.33301 5.33301 12.333 16 21c-3.33301 5.33301 -6.66602 8 -9.99902 8c-2 0 -7 -2.66699 -15 -8s-14 -8 -18 -8
c-6 0 -12 3.33301 -18 10c1.33301 3.33301 12 8.66602 32 15.999c20.667 6.66699 32.667 9.66699 36 9c6 -4 12 -2.33301 18 5c3.33301 3.33301 6.33301 5.66602 9 6.99902c2 0 3.66699 -0.666992 5 -2c6.66699 -5.33301 14.667 -9.66602 24 -12.999
c2 -0.666992 5.16699 -1.33398 9.5 -2.00098s10.166 -1.66699 17.499 -3zM560.996 303.999c6.66699 0.666992 9 3.66699 7 9c-0.666992 4.66699 -3.66699 6 -9 4s-7.33301 -5 -6 -9c0 -0.666992 2.66699 -2 8 -4zM273.996 510.999
c4.66699 -0.666992 7.66797 -0.333984 9.00098 0.999023c1.33301 4.66699 1.16602 7.33398 -0.500977 8.00098s-6.16699 3.33398 -13.5 8.00098c-5.33301 3.33301 -9.33301 5 -12 5c-0.666992 0 -3 -0.666992 -7 -2c6.66699 -8.66699 14.667 -15.334 24 -20.001z
M319.997 382.999c2 6.66699 1 13.667 -3 21l-9 -17z" />
    <glyph glyph-name="afii10057" unicode="&#x408;" horiz-adv-x="566" 
d="M433 0h-429v179h249v621h180v-800z" />
    <glyph glyph-name="afii10058" unicode="&#x409;" horiz-adv-x="1223" 
d="M1097 -1h-639v621h-112l-161 -621h-185l162 621h-124v179h599v-253h460v-547zM918 367h-281v-188h281v188z" />
    <glyph glyph-name="afii10061" unicode="&#x40c;" horiz-adv-x="725" 
d="M522 396l84 -396h-188l-84 396h-155v-396h-179v800h179v-225h281v225h179v-404h-88h-29zM327 994h158l-86 -181h-158z" />
    <glyph glyph-name="afii10017" unicode="&#x410;" horiz-adv-x="719" 
d="M142 620h-125v179h600v-800h-179v136h-238l-36 -136h-184zM438 314v306h-112l-80 -306h192z" />
    <glyph glyph-name="afii10018" unicode="&#x411;" horiz-adv-x="725" 
d="M628 497v-497h-1v-1h-627v800h627v-179h-448v-123h449zM179 178h270v140h-270v-140z" />
    <glyph glyph-name="afii10019" unicode="&#x412;" horiz-adv-x="721" 
d="M628 477l-88 -79l88 -61v-337h-628v799h629zM383 318h-204v-140h256v91zM383 497l52 51v72h-256v-123h204z" />
    <glyph glyph-name="afii10020" unicode="&#x413;" horiz-adv-x="615" 
d="M0 800h579v-179h-400v-621h-179v800z" />
    <glyph glyph-name="afii10021" unicode="&#x414;" horiz-adv-x="819" 
d="M558 -1h-393v-110h-165v289h89l122 621h458v-621h75l-1 -289h-185v110zM490 178v442h-141l-73 -442h214z" />
    <glyph glyph-name="afii10022" unicode="&#x415;" horiz-adv-x="703" 
d="M0 -1v800h628v-179h-449v-123h350v-179h-350v-140h449v-179h-628z" />
    <glyph glyph-name="afii10024" unicode="&#x416;" horiz-adv-x="1025" 
d="M820 396l85 -396h-188l-85 396h-73v-397h-179h-1v397h-73l-85 -396h-188l85 396h-118v403h179v-225h200v225h179h1v-225h200v225h179v-403h-118z" />
    <glyph glyph-name="afii10025" unicode="&#x417;" horiz-adv-x="638" 
d="M-1 -1v178h371v126h-205v176l170 143h-336v177h550v-176l-176 -144h176v-480h-550z" />
    <glyph glyph-name="afii10026" unicode="&#x418;" horiz-adv-x="717" 
d="M622 800v-800h-179v486l-264 -157v-329h-179v800h179v-253l264 157v96h179z" />
    <glyph glyph-name="afii10027" unicode="&#x419;" horiz-adv-x="717" 
d="M622 800v-800h-179v486l-264 -157v-329h-179v800h179v-253l264 157v96h179zM228 740v96h171v-96h-171z" />
    <glyph glyph-name="afii10028" unicode="&#x41a;" horiz-adv-x="725" 
d="M522 396l84 -396h-188l-84 396h-155v-396h-179v800h179v-225h281v225h179v-404h-88h-29z" />
    <glyph glyph-name="afii10029" unicode="&#x41b;" 
d="M458 620h-112l-161 -621h-185l162 621h-124v179h599v-800h-179v621z" />
    <glyph glyph-name="afii10030" unicode="&#x41c;" horiz-adv-x="895" 
d="M0 800h180l220 -208l221 208h179v-800h-179v558l-221 -223l-220 223v-558h-180v800z" />
    <glyph glyph-name="afii10031" unicode="&#x41d;" 
d="M637 799v-800h-179v394h-279v-394h-179v800h179v-227h279v227h179z" />
    <glyph glyph-name="afii10032" unicode="&#x41e;" horiz-adv-x="775" 
d="M0 0v800h680v-800h-680zM501 179v442h-322v-442h322z" />
    <glyph glyph-name="afii10033" unicode="&#x41f;" horiz-adv-x="733" 
d="M637 799v-800h-178v621h-280v-621h-179v800h637z" />
    <glyph glyph-name="afii10034" unicode="&#x420;" horiz-adv-x="727" 
d="M639 253h-460v-253h-179v800h639v-547zM460 621h-281v-189h281v189z" />
    <glyph glyph-name="afii10035" unicode="&#x421;" horiz-adv-x="721" 
d="M0 -1v800h626v-179h-447v-442h447v-179h-626z" />
    <glyph glyph-name="glyph120" unicode="&#x422;" horiz-adv-x="701" 
d="M620 621h-224v-621h-195v621h-221v179h640v-179z" />
    <glyph glyph-name="afii10037" unicode="&#x423;" horiz-adv-x="734" 
d="M639 799v-800h-638v179h459v116h-460v505h180v-325h280v325h179z" />
    <glyph glyph-name="afii10038" unicode="&#x424;" horiz-adv-x="984" 
d="M892 -2h-356v-79h-180v79h-356v802h356v79h180v-79h356v-802zM356 178v443h-177v-443h177zM713 621h-177v-443h177v443z" />
    <glyph glyph-name="afii10039" unicode="&#x425;" horiz-adv-x="727" 
d="M467 0l-104 316h-66l-105 -316h-198l147 401l-135 399h197l94 -314h66l93 314h202l-135 -399l146 -401h-202z" />
    <glyph glyph-name="afii10040" unicode="&#x426;" horiz-adv-x="838" 
d="M441 178v621h179v-621h133v-179h-753v800h179v-621h262z" />
    <glyph glyph-name="afii10041" unicode="&#x427;" horiz-adv-x="734" 
d="M0 799h180v-325h280v325h179v-800h-179v295h-460v505z" />
    <glyph glyph-name="afii10042" unicode="&#x428;" horiz-adv-x="942" 
d="M0 0v800h179v-621h148v518h179v-518h134v621h179v-800h-819z" />
    <glyph glyph-name="afii10043" unicode="&#x429;" horiz-adv-x="1070" 
d="M637 180v621h179v-621h133v-179h-951v800h179v-621h148v518h179v-518h133z" />
    <glyph glyph-name="afii10044" unicode="&#x42a;" horiz-adv-x="940" 
d="M415 799v-253h459v-547h-639v621h-235v179h415zM695 367h-280v-188h280v188z" />
    <glyph glyph-name="afii10045" unicode="&#x42b;" horiz-adv-x="973" 
d="M639 -1h-639v800h179v-253h460v-547zM460 367h-281v-188h281v188zM698 -1v800h180v-800h-180z" />
    <glyph glyph-name="afii10046" unicode="&#x42c;" horiz-adv-x="705" 
d="M639 -1h-639v800h179v-253h460v-547zM460 367h-281v-188h281v188z" />
    <glyph glyph-name="afii10047" unicode="&#x42d;" horiz-adv-x="570" 
d="M518 544v-290l-223 -254h-297v171h224l125 142h-245v171h245l-125 143h-224v171h297z" />
    <glyph glyph-name="afii10048" unicode="&#x42e;" horiz-adv-x="1090" 
d="M987 798v-800h-698v377h-111v-376h-179v799h179v-244h111v244h698zM798 619h-322v-442h322v442z" />
    <glyph glyph-name="afii10049" unicode="&#x42f;" horiz-adv-x="734" 
d="M639 799v-800h-179v335h-167l-72 -334h-188l72 334h-105v465h639zM460 512v108h-281v-108h281z" />
    <glyph glyph-name="afii10065" unicode="&#x430;" 
d="M20 315l105 306h-125v179h616v-800h-179v136h-238v-136h-179v315zM209 315h228v306h-139z" />
    <glyph glyph-name="afii10066" unicode="&#x431;" horiz-adv-x="725" 
d="M628 497v-497h-1v-1h-627v800h627v-179h-448v-123h449zM179 178h270v140h-270v-140z" />
    <glyph glyph-name="afii10067" unicode="&#x432;" horiz-adv-x="721" 
d="M628 788v-311l-88 -79l88 -61v-337h-1v-1h-627v800h627v-11h1zM383 318h-204v-140h256v91zM383 497l52 51v72h-256v-123h204z" />
    <glyph glyph-name="afii10068" unicode="&#x433;" horiz-adv-x="615" 
d="M0 800h579v-179h-400v-621h-179v800z" />
    <glyph glyph-name="afii10069" unicode="&#x434;" horiz-adv-x="819" 
d="M567 -1h-374v-110h-173v289h89l-73 621h642v-621h75l-1 -289h-185v110zM499 178v442h-258l55 -442h203z" />
    <glyph glyph-name="afii10070" unicode="&#x435;" horiz-adv-x="727" 
d="M0 0v799h670l-83 -498h-408v-123h448v-178h-627zM179 480h250l23 140h-273v-140z" />
    <glyph glyph-name="afii10072" unicode="&#x436;" horiz-adv-x="1025" 
d="M938 424v-423h-179v245h-200v-245h-1h-179v245h-200v-245h-179v423h118l-85 374h188l85 -374h73v375h1h179v-375h73l85 374h188l-85 -374h118z" />
    <glyph glyph-name="afii10073" unicode="&#x437;" horiz-adv-x="620" 
d="M-1 -1v178h371v126h-205v176l170 143h-336v177h550v-176l-176 -144h176v-480h-550z" />
    <glyph glyph-name="afii10074" unicode="&#x438;" horiz-adv-x="718" 
d="M179 0h-179v800h179v-605l265 81v524h179v-800h-179v81z" />
    <glyph glyph-name="afii10075" unicode="&#x439;" horiz-adv-x="718" 
d="M179 0h-179v800h179v-605l265 81v524h179v-800h-179v81zM225 781v96h171v-96h-171z" />
    <glyph glyph-name="afii10076" unicode="&#x43a;" horiz-adv-x="727" 
d="M551 403h88v-403h-179v225h-281v-225h-179v800h179v-396h155l84 395h188l-84 -395h29v-1z" />
    <glyph glyph-name="afii10077" unicode="&#x43b;" 
d="M441 0v621h-123l-113 -306v-315h-173v315l105 306h-125v179h608v-800h-179v0z" />
    <glyph glyph-name="afii10078" unicode="&#x43c;" horiz-adv-x="895" 
d="M0 800h180l220 -208l221 208h179v-800h-179v558l-221 -223l-220 223v-558h-180v800z" />
    <glyph glyph-name="afii10079" unicode="&#x43d;" 
d="M637 799v-800h-179v394h-279v-394h-179v800h179v-227h279v227h179z" />
    <glyph glyph-name="afii10080" unicode="&#x43e;" horiz-adv-x="776" 
d="M0 0v800h681v-800h-681zM502 179v442h-323v-442h323z" />
    <glyph glyph-name="afii10081" unicode="&#x43f;" horiz-adv-x="733" 
d="M637 799v-800h-178v621h-280v-621h-179v800h637z" />
    <glyph glyph-name="afii10082" unicode="&#x440;" horiz-adv-x="705" 
d="M572 253h-393v-253h-179v800h665zM457 621h-278v-189h237z" />
    <glyph glyph-name="afii10083" unicode="&#x441;" horiz-adv-x="698" 
d="M0 0v799h626v-179h-447v-442h447v-178h-626z" />
    <glyph glyph-name="glyph121" unicode="&#x442;" horiz-adv-x="938" 
d="M819 800v-800h-179v621h-148v-519h-179v519h-134v-621h-179v800h819z" />
    <glyph glyph-name="afii10085" unicode="&#x443;" horiz-adv-x="734" 
d="M639 799v-800h-638v179h459v116h-460v505h180v-325h280v325h179z" />
    <glyph glyph-name="afii10086" unicode="&#x444;" horiz-adv-x="996" 
d="M892 -2h-356v-79h-180v79h-356v802h356v79h180v-79h356v-802zM356 178v443h-177v-443h177zM713 621h-177v-443h177v443z" />
    <glyph glyph-name="afii10087" unicode="&#x445;" horiz-adv-x="727" 
d="M467 0l-104 316h-66l-105 -316h-198l147 401l-135 399h197l94 -314h66l93 314h202l-135 -399l146 -401h-202z" />
    <glyph glyph-name="afii10088" unicode="&#x446;" horiz-adv-x="876" 
d="M441 178v621h179v-621h133v-179h-753v800h179v-621h262z" />
    <glyph glyph-name="afii10089" unicode="&#x447;" horiz-adv-x="734" 
d="M0 799h180v-325h280v325h179v-800h-179v295h-460v505z" />
    <glyph glyph-name="afii10090" unicode="&#x448;" horiz-adv-x="942" 
d="M0 0v800h179v-621h148v518h179v-518h134v621h179v-800h-819z" />
    <glyph glyph-name="afii10091" unicode="&#x449;" horiz-adv-x="1070" 
d="M637 180v621h179v-621h133v-179h-951v800h179v-621h148v518h179v-518h133z" />
    <glyph glyph-name="afii10092" unicode="&#x44a;" horiz-adv-x="940" 
d="M415 799v-253h459v-547h-639v621h-235v179h415zM695 367h-280v-188h280v188z" />
    <glyph glyph-name="afii10093" unicode="&#x44b;" horiz-adv-x="973" 
d="M639 -1h-639v800h179v-253h460v-547zM460 367h-281v-188h281v188zM698 -1v800h180v-800h-180z" />
    <glyph glyph-name="afii10094" unicode="&#x44c;" horiz-adv-x="705" 
d="M639 -1h-639v800h179v-253h460v-547zM460 367h-281v-188h281v188z" />
    <glyph glyph-name="afii10095" unicode="&#x44d;" horiz-adv-x="570" 
d="M518 544v-290l-223 -254h-297v171h224l125 142h-245v171h245l-125 143h-224v171h297z" />
    <glyph glyph-name="afii10096" unicode="&#x44e;" horiz-adv-x="1097" 
d="M987 798v-800h-698v377h-111v-376h-179v799h179v-244h111v244h698zM798 619h-322v-442h322v442z" />
    <glyph glyph-name="afii10097" unicode="&#x44f;" horiz-adv-x="734" 
d="M639 799v-800h-179v335h-167l-72 -334h-188l72 334h-105v465h639zM460 512v108h-281v-108h281z" />
    <glyph glyph-name="afii10071" unicode="&#x451;" horiz-adv-x="694" 
d="M105 962h146v-119h-146v119zM352 962h146v-119h-146v119z" />
    <glyph glyph-name="afii10100" unicode="&#x453;" horiz-adv-x="615" 
d="M0 800h579v-179h-400v-621h-179v800zM272 994h158l-86 -181h-158z" />
    <glyph glyph-name="afii10101" unicode="&#x454;" horiz-adv-x="833" 
 />
    <glyph glyph-name="glyph111" unicode="&#x455;" horiz-adv-x="721" 
d="M638 0h-638v178h461v136h-461v486h638v-179h-459v-131h459v-490z" />
    <glyph glyph-name="afii10103" unicode="&#x456;" horiz-adv-x="271" 
d="M180 800v-180h-180v180h180zM180 517v-517h-180v517h180z" />
    <glyph glyph-name="afii10105" unicode="&#x458;" horiz-adv-x="566" 
d="M433 0h-429v179h249v621h180v-800z" />
    <glyph glyph-name="afii10106" unicode="&#x459;" horiz-adv-x="1223" 
d="M1097 -1h-639v621h-112l-161 -621h-185l162 621h-124v179h599v-253h460v-547zM918 367h-281v-188h281v188z" />
    <glyph glyph-name="afii10109" unicode="&#x45c;" horiz-adv-x="727" 
d="M551 403h88v-403h-179v225h-281v-225h-179v800h179v-396h155l84 395h188l-84 -395h29v-1zM328 994h158l-86 -181h-158z" />
    <glyph glyph-name="endash" unicode="&#x2013;" horiz-adv-x="833" 
d="M4 370h618v-130h-618v130z" />
    <glyph glyph-name="emdash" unicode="&#x2014;" horiz-adv-x="955" 
d="M4 370h814v-130h-814v130z" />
    <glyph glyph-name="quotedblright" unicode="&#x201d;" horiz-adv-x="487" 
d="M0 686v192h171v-113zM230 686v192h171v-113z" />
    <glyph glyph-name="quotedblbase" unicode="&#x201e;" horiz-adv-x="487" 
d="M0 -193v192h171v-113zM230 -193v192h171v-113z" />
    <glyph glyph-name="daggerdbl" unicode="&#x2021;" 
d="M162 620h-125v179h600v-800h-179v136h-238l-36 -136h-184zM458 314v306h-112l-80 -306h192z" />
    <glyph glyph-name="bullet" unicode="&#x2022;" horiz-adv-x="380" 
d="M40 319c0 41.333 14.667 76.666 44 105.999s64.666 44 105.999 44s76.666 -14.667 105.999 -44s44 -64.666 44 -105.999s-14.667 -76.666 -44 -105.999s-64.666 -44 -105.999 -44s-76.666 14.667 -105.999 44s-44 64.666 -44 105.999z" />
    <glyph glyph-name="ellipsis" unicode="&#x2026;" horiz-adv-x="266" 
d="M0 2v171h171v-171h-171zM324 0v171h171v-171h-171zM627 1v171h171v-171h-171z" />
    <glyph glyph-name="perthousand" unicode="&#x2030;" horiz-adv-x="733" 
d="M306 700v-352h-266v352h266zM204 610h-62v-172h62v172zM708 352v-352h-266v352h266zM606 262h-62v-172h62v172zM542 752l68 -36l-398 -760l-68 36zM1047 352v-352h-266v352h266zM945 262h-62v-172h62v172z" />
    <glyph glyph-name=".null" horiz-adv-x="0" 
 />
    <glyph glyph-name="nonmarkingreturn" horiz-adv-x="506" 
 />
    <glyph glyph-name="glyph108" horiz-adv-x="300" 
d="M26 -1v800h179v-800h-179z" />
    <glyph glyph-name="glyph114" horiz-adv-x="0" 
 />
    <glyph glyph-name="glyph115" horiz-adv-x="500" 
 />
    <glyph glyph-name="glyph116" horiz-adv-x="819" 
d="M658 799v-621h75v-179h-733v179h89l122 621h447zM479 178v442h-130l-73 -442h203z" />
    <glyph glyph-name="glyph117" horiz-adv-x="500" 
 />
    <glyph glyph-name="S_T" horiz-adv-x="1422" 
d="M638 0h-638v178h461v136h-461v486h702l-63 -179h-460v-131h459v-490zM1341 621h-230v-621h-180v621h-244l58 179h596v-179z" />
    <glyph glyph-name="afii10036" horiz-adv-x="701" 
d="M620 621h-230v-621h-180v621h-230v179h640v-179z" />
    <glyph glyph-name="afii10084" horiz-adv-x="701" 
d="M640 621h-230v-621h-180v621h-230v179h640v-179z" />
    <glyph glyph-name="afii10054" horiz-adv-x="721" 
d="M638 0h-638v178h461v136h-461v486h638v-179h-459v-131h459v-490z" />
    <glyph glyph-name="afii10102" horiz-adv-x="721" 
d="M638 0h-638v178h461v136h-461v486h638v-179h-459v-131h459v-490z" />
    <glyph glyph-name="afii10056" horiz-adv-x="833" 
 />
    <glyph glyph-name="afii10023" horiz-adv-x="694" 
d="M0 -1v800h628v-179h-449v-123h350v-179h-350v-140h449v-179h-628zM110 962h146v-119h-146v119zM357 962h146v-119h-146v119z" />
    </font>
</defs>
</svg>
